<svg width="105" height="104" viewBox="0 0 105 104" fill="none" xmlns="http://www.w3.org/2000/svg">
<path fill-rule="evenodd" clip-rule="evenodd" d="M50.7796 0.86499C59.7308 0.86499 68.1511 3.11748 75.4956 7.08109L65.6413 9.85584C59.6498 7.136 53.0028 5.62189 46.0044 5.62189C26.4689 5.62189 9.67063 17.4173 2.23755 34.3226C9.5522 14.7869 28.5246 0.86499 50.7796 0.86499ZM93.6004 81.0037C84.2856 94.569 68.5831 103.479 50.7796 103.479C43.804 103.479 37.1523 102.108 31.0793 99.6284C35.776 101.181 40.7922 102.023 46.0044 102.023C63.0741 102.023 78.0535 93.0171 86.5224 79.4662L93.6004 81.0037Z" fill="#002F53"/>
<path fill-rule="evenodd" clip-rule="evenodd" d="M48.0271 7.49185C53.8483 7.49185 59.4194 8.55115 64.5605 10.4813C60.9852 9.57915 57.2405 9.09827 53.3827 9.09827C32.2126 9.09827 14.4386 23.5372 9.48646 43.0438L2.75134 42.2213C7.9928 22.2404 26.2758 7.49185 48.0271 7.49185ZM14.9405 77.8415C22.934 90.5813 37.1606 99.061 53.3827 99.061C56.6647 99.061 59.864 98.7108 62.9477 98.0517C58.2615 99.6173 53.2443 100.467 48.0271 100.467C31.3678 100.467 16.7443 91.8141 8.45468 78.7865L14.9405 77.8415Z" fill="#00A0D7"/>
<path fill-rule="evenodd" clip-rule="evenodd" d="M83.3723 11.7199C83.1887 12.2689 83.6556 16.6825 83.6317 17.9209C83.5934 19.9129 83.3786 21.9591 82.9904 23.87C82.2589 27.4712 80.9966 30.5299 79.2316 33.1797C78.4328 34.3789 76.4907 36.6995 75.4172 37.5816C73.3107 39.3126 70.8599 40.7588 68.2593 41.8358C66.9885 42.362 63.7329 43.2082 63.3274 43.5452C64.6051 44.0164 67.6419 46.618 68.766 47.5107C69.6079 48.1794 70.5271 49.013 71.2571 49.7211C71.7014 50.152 71.9796 50.4668 72.3845 50.9449C72.7992 51.4347 73.1182 51.6629 73.475 52.2037L71.967 52.881C68.4162 54.2141 64.9461 55.8961 61.393 57.2585C54.6703 59.8362 53.6421 59.6615 47.0944 59.8017C50.0709 60.3287 51.6404 60.7904 55.0204 60.4572C61.7164 59.7971 68.6506 56.0715 75.0247 53.9181C82.8252 51.2828 89.4982 50.3363 97.8354 52.7523C100.294 53.4647 101.997 54.3633 104.086 55.1704C101.715 53.0805 98.0938 51.3601 94.2075 50.3361C95.1712 44.1061 95.7882 39.8827 94.5385 33.462C93.7552 29.4384 92.6753 26.4339 91.0262 22.8895C90.7104 22.2108 89.6284 20.4314 89.5543 20.0416C89.5316 20.6569 90.0736 22.6372 90.2148 23.5261C90.4167 24.7983 90.5308 25.9923 90.6216 27.2808C91.0149 32.8639 89.6571 45.2115 87.7782 49.5282L85.8497 49.595C88.4062 33.3706 89.6422 27.0943 83.3723 11.7199Z" fill="#002F53"/>
<path fill-rule="evenodd" clip-rule="evenodd" d="M56.1846 49.7566C54.9285 47.8339 54.6575 47.2594 53.717 44.2474C51.8257 37.4095 53.4945 31.2139 57.8745 26.0061C59.9388 23.5517 63.3054 21.0774 67.8065 19.998C71.1803 19.189 75.1049 19.3898 78.3691 20.5784C79.2753 20.9083 80.4476 21.526 81.1693 21.7276L81.5063 19.5597C79.5668 19.1142 78.7954 18.2137 74.9456 17.8065C69.9532 17.2785 65.4852 18.481 61.4644 21.0403C60.7428 21.4996 59.5241 22.3789 59.0715 22.8472C56.864 25.1309 55.309 26.6753 53.8843 30.0716C52.0295 34.4928 51.8041 39.6699 53.2496 44.198C53.8252 46.0009 54.8073 48.3692 56.1846 49.7566Z" fill="#00A0D7"/>
<path fill-rule="evenodd" clip-rule="evenodd" d="M58.9873 62.1314C67.9627 64.521 77.8601 55.1915 89.2917 54.9853C94.6297 54.8889 95.8495 55.759 100.096 56.8595C98.2872 55.1999 93.1833 53.9086 89.9651 53.7947C77.8305 53.365 70.3865 61.9382 58.9873 62.1314Z" fill="#00A0D7"/>
<path fill-rule="evenodd" clip-rule="evenodd" d="M6.54001 65.3467V65.6833C6.23263 65.7269 6.07893 65.9046 6.07893 66.2162V71.0221C6.07893 71.3337 6.23263 71.5114 6.54001 71.555V71.8916H4.19686V71.555C4.51057 71.5051 4.66739 71.3275 4.66739 71.0221V65.8422H1.882V71.0221C1.882 71.3213 2.0357 71.4989 2.34312 71.555V71.8916H0V71.555C0.119166 71.5425 0.227412 71.4973 0.324621 71.4194C0.421853 71.3415 0.470528 71.209 0.470528 71.0221V66.2162C0.470528 66.0292 0.421853 65.8968 0.324621 65.8189C0.227412 65.7409 0.119166 65.6958 0 65.6833V65.3467H6.54001ZM10.6616 65.2439C11.1697 65.2439 11.6324 65.3389 12.0496 65.529C12.4668 65.7191 12.8165 65.9747 13.0988 66.2957C13.3811 66.6167 13.5992 66.9783 13.7528 67.3803C13.9065 67.7824 13.9833 68.2015 13.9833 68.6378C13.9833 69.2861 13.8328 69.8658 13.5317 70.377C13.2306 70.888 12.8213 71.2854 12.3036 71.569C11.7861 71.8526 11.2388 71.9944 10.6616 71.9944C10.0845 71.9944 9.53709 71.8526 9.01957 71.569C8.50198 71.2854 8.09268 70.888 7.79153 70.377C7.4904 69.8658 7.33988 69.2861 7.33988 68.6378C7.33988 68.0768 7.47314 67.533 7.73977 67.0063C8.00639 66.4796 8.39534 66.0542 8.90663 65.73C9.41793 65.4059 10.0029 65.2439 10.6616 65.2439ZM10.6616 65.7394C10.304 65.7394 9.99663 65.8111 9.7394 65.9544C9.48226 66.0978 9.27834 66.383 9.12774 66.81C8.97719 67.2369 8.90194 67.8462 8.90194 68.6378C8.90194 69.6975 9.04307 70.4392 9.32541 70.8631C9.60768 71.287 10.0531 71.4989 10.6616 71.4989C11.0631 71.4989 11.3941 71.4117 11.6544 71.2371C11.9148 71.0625 12.1077 70.7649 12.2331 70.3442C12.3586 69.9234 12.4213 69.3546 12.4213 68.6378C12.4213 67.8462 12.346 67.2369 12.1955 66.81C12.0449 66.383 11.841 66.0978 11.5838 65.9544C11.3266 65.8111 11.0192 65.7394 10.6616 65.7394ZM16.8534 65.3467V65.6833C16.5272 65.7269 16.3641 65.9046 16.3641 66.2162V67.7589C16.3641 68.1329 16.4315 68.4119 16.5664 68.5958C16.7013 68.7797 17.0291 68.8716 17.5497 68.8716C17.9199 68.8716 18.29 68.8124 18.6601 68.6939V66.2162C18.6601 66.0542 18.6303 65.9404 18.5708 65.875C18.5112 65.8095 18.3841 65.7456 18.1897 65.6833V65.3467H20.5421V65.6833C20.3539 65.7394 20.2285 65.8017 20.1657 65.8703C20.103 65.9389 20.0717 66.0542 20.0717 66.2162V71.0221C20.0717 71.3399 20.2285 71.5176 20.5421 71.555V71.8916H18.1897V71.555C18.5033 71.5051 18.6601 71.3275 18.6601 71.0221V69.1895C17.9513 69.4014 17.3176 69.5073 16.7593 69.5073C16.0944 69.5073 15.627 69.3796 15.3572 69.124C15.0875 68.8685 14.9526 68.4134 14.9526 67.7589V66.2162C14.9526 65.9046 14.802 65.7269 14.5009 65.6833V65.3467H16.8534ZM20.9185 71.555C21.182 71.4802 21.411 71.2402 21.6055 70.8351L23.5063 66.8426C23.5816 66.6869 23.6192 66.4967 23.6192 66.2723C23.6192 66.21 23.5769 66.1586 23.4922 66.1181C23.4075 66.0775 23.3024 66.0666 23.1769 66.0853V65.7488C23.6914 65.7113 24.0866 65.543 24.3626 65.2439H24.7014L27.1668 70.3675C27.3488 70.7415 27.5056 71.0127 27.6373 71.181C27.7691 71.3493 27.9071 71.474 28.0514 71.555V71.8916H25.3601V71.555C25.5232 71.555 25.6503 71.5005 25.7412 71.3914C25.8322 71.2823 25.8777 71.1592 25.8777 71.0221C25.8777 70.966 25.8494 70.8693 25.793 70.7322L25.5013 70.1244H22.4994L22.2547 70.6761C22.1983 70.8194 22.1622 70.9426 22.1466 71.0454C22.1309 71.1483 22.1669 71.248 22.2547 71.3446C22.3426 71.4412 22.512 71.5114 22.763 71.555V71.8916H20.9185V71.555ZM23.9768 67.0296L22.7817 69.5915V69.6289H25.2283V69.6009L24.0145 67.0296H23.9768ZM28.1455 65.1784H28.5219C28.6912 65.2657 28.892 65.3093 29.1241 65.3093H33.4151C33.641 65.3093 33.8448 65.2657 34.0268 65.1784H34.3938V66.8614H34.0549C33.7476 66.1632 33.2614 65.8142 32.5964 65.8142L31.9754 65.8049V71.0221C31.9754 71.1716 32.0067 71.2838 32.0694 71.3586C32.1322 71.4335 32.2576 71.4989 32.4459 71.555V71.8916H30.1028V71.555C30.2909 71.4989 30.4148 71.4365 30.4744 71.368C30.5341 71.2994 30.5638 71.1841 30.5638 71.0221V65.8049L30.0369 65.8142C29.7106 65.8142 29.408 65.8843 29.1288 66.0245C28.8496 66.1648 28.6348 66.4438 28.4842 66.8614H28.1455V65.1784ZM34.8642 65.3467H37.1979V65.6833C36.8905 65.7332 36.7368 65.9108 36.7368 66.2162V67.8898C37.1948 67.8961 37.5352 67.7792 37.7578 67.5392C37.9805 67.2993 38.1672 66.9829 38.3177 66.5902C38.4871 66.1601 38.6769 65.8282 38.8871 65.5945C39.0972 65.3608 39.4281 65.2439 39.8798 65.2439C40.0931 65.2439 40.297 65.2719 40.4914 65.328V66.8333H40.1527C40.09 66.6214 39.9519 66.5154 39.7386 66.5154C39.5943 66.5154 39.4673 66.57 39.3575 66.6791C39.2477 66.7881 39.1175 66.9424 38.967 67.1418C38.7976 67.3787 38.633 67.5735 38.473 67.7263C38.313 67.879 38.0919 68.0052 37.8096 68.1049V68.1704C38.3302 68.2265 38.7396 68.3558 39.0376 68.5583C39.3356 68.761 39.5363 68.9713 39.6399 69.1895C39.7433 69.4077 39.839 69.6913 39.9268 70.0403C39.9958 70.3457 40.0649 70.5951 40.1339 70.7883C40.2029 70.9816 40.3064 71.1436 40.4444 71.2745C40.5824 71.4054 40.7674 71.4802 40.9996 71.4989V71.8636C40.7925 71.9508 40.5448 71.9944 40.2562 71.9944C39.8108 71.9944 39.4579 71.904 39.1976 71.7233C38.9372 71.5426 38.76 71.3415 38.6659 71.1202C38.5718 70.899 38.4934 70.6481 38.4306 70.3675C38.3177 69.7629 38.1452 69.2736 37.9131 68.8997C37.681 68.5257 37.2889 68.3542 36.7368 68.3854V71.0221C36.7368 71.3275 36.8905 71.5051 37.1979 71.555V71.8916H34.8642V71.555C35.1716 71.5114 35.3253 71.3337 35.3253 71.0221V66.2162C35.3253 65.9046 35.1716 65.7269 34.8642 65.6833V65.3467ZM45.1212 65.2439C45.6294 65.2439 46.092 65.3389 46.5092 65.529C46.9264 65.7191 47.2762 65.9747 47.5584 66.2957C47.8407 66.6167 48.0588 66.9783 48.2125 67.3803C48.3662 67.7824 48.443 68.2015 48.443 68.6378C48.443 69.2861 48.2924 69.8658 47.9913 70.377C47.6902 70.888 47.2809 71.2854 46.7633 71.569C46.2457 71.8526 45.6984 71.9944 45.1212 71.9944C44.5441 71.9944 43.9967 71.8526 43.4792 71.569C42.9616 71.2854 42.5523 70.888 42.2512 70.377C41.95 69.8658 41.7995 69.2861 41.7995 68.6378C41.7995 68.0768 41.9328 67.533 42.1994 67.0063C42.466 66.4796 42.855 66.0542 43.3663 65.73C43.8775 65.4059 44.4626 65.2439 45.1212 65.2439ZM45.1212 65.7394C44.7636 65.7394 44.4563 65.8111 44.199 65.9544C43.9419 66.0978 43.738 66.383 43.5874 66.81C43.4368 67.2369 43.3616 67.8462 43.3616 68.6378C43.3616 69.6975 43.5027 70.4392 43.785 70.8631C44.0673 71.287 44.5127 71.4989 45.1212 71.4989C45.5227 71.4989 45.8537 71.4117 46.114 71.2371C46.3744 71.0625 46.5673 70.7649 46.6927 70.3442C46.8182 69.9234 46.8809 69.3546 46.8809 68.6378C46.8809 67.8462 46.8056 67.2369 46.6551 66.81C46.5045 66.383 46.3006 66.0978 46.0434 65.9544C45.7862 65.8111 45.4788 65.7394 45.1212 65.7394ZM49.2428 65.3467H51.7836C52.6932 65.3155 53.3252 65.4589 53.6797 65.7768C54.0341 66.0947 54.2114 66.4687 54.2114 66.8988C54.2114 67.2229 54.1361 67.4925 53.9855 67.7075C53.835 67.9226 53.6452 68.0893 53.4162 68.2078C53.1872 68.3262 52.9724 68.4041 52.7716 68.4415V68.535C53.2923 68.5849 53.7205 68.7625 54.0561 69.0679C54.3917 69.3734 54.5595 69.7598 54.5595 70.2273C54.5595 70.701 54.4199 71.0641 54.1408 71.3166C53.8616 71.569 53.5526 71.7279 53.2139 71.7934C52.8751 71.8588 52.552 71.8916 52.2446 71.8916H49.2428V71.555C49.5502 71.5114 49.7039 71.3337 49.7039 71.0221V66.2162C49.7039 65.9046 49.5502 65.7269 49.2428 65.6833V65.3467ZM51.1154 65.8422V68.2358H51.6236C51.9749 68.2358 52.2603 68.1299 52.4799 67.9179C52.6995 67.706 52.8092 67.4161 52.8092 67.0484C52.8092 66.2443 52.3513 65.8422 51.4354 65.8422H51.1154ZM51.1154 68.7313V71.3961H51.6612C52.5771 71.3961 53.0351 70.9691 53.0351 70.1151C53.0351 69.6414 52.8782 69.2923 52.5646 69.0679C52.2509 68.8435 51.8839 68.7313 51.4636 68.7313H51.1154ZM54.983 71.555C55.2464 71.4802 55.4754 71.2402 55.6699 70.8351L57.5708 66.8426C57.646 66.6869 57.6836 66.4967 57.6836 66.2723C57.6836 66.21 57.6413 66.1586 57.5566 66.1181C57.4719 66.0775 57.3668 66.0666 57.2414 66.0853V65.7488C57.7558 65.7113 58.151 65.543 58.427 65.2439H58.7658L61.2312 70.3675C61.4132 70.7415 61.57 71.0127 61.7018 71.181C61.8335 71.3493 61.9715 71.474 62.1158 71.555V71.8916H59.4245V71.555C59.5877 71.555 59.7147 71.5005 59.8056 71.3914C59.8966 71.2823 59.9421 71.1592 59.9421 71.0221C59.9421 70.966 59.9138 70.8693 59.8574 70.7322L59.5657 70.1244H56.5638L56.3192 70.6761C56.2628 70.8194 56.2266 70.9426 56.211 71.0454C56.1953 71.1483 56.2313 71.248 56.3192 71.3446C56.4071 71.4412 56.5764 71.5114 56.8274 71.555V71.8916H54.983V71.555ZM58.0412 67.0296L56.8462 69.5915V69.6289H59.2928V69.6009L58.0789 67.0296H58.0412ZM68.1382 65.3467V65.6833C67.8246 65.7332 67.6677 65.9389 67.6677 66.3004V71.3961H69.8414V66.3004C69.8414 66.1383 69.8148 66.0012 69.7615 65.889C69.7081 65.7768 69.5811 65.7082 69.3804 65.6833V65.3467H71.7235V65.6833C71.4098 65.7332 71.253 65.9389 71.253 66.3004V71.3961H73.4267V66.3004C73.4267 65.9389 73.2699 65.7332 72.9562 65.6833V65.3467H75.2993V65.6833C75.0986 65.7082 74.9715 65.7768 74.9181 65.889C74.8648 66.0012 74.8382 66.1383 74.8382 66.3004V71.0221C74.8382 71.3337 74.9919 71.5114 75.2993 71.555V71.8916H65.7951V71.555C66.1025 71.5114 66.2562 71.3337 66.2562 71.0221V66.3004C66.2562 66.1383 66.2295 66.0012 66.1762 65.889C66.1229 65.7768 65.9959 65.7082 65.7951 65.6833V65.3467H68.1382ZM76.0521 65.3467H78.3858V65.6833C78.0784 65.7332 77.9247 65.9108 77.9247 66.2162V67.8898C78.3827 67.8961 78.723 67.7792 78.9457 67.5392C79.1684 67.2993 79.355 66.9829 79.5056 66.5902C79.675 66.1601 79.8648 65.8282 80.0749 65.5945C80.2851 65.3608 80.616 65.2439 81.0677 65.2439C81.281 65.2439 81.4849 65.2719 81.6793 65.328V66.8333H81.3406C81.2779 66.6214 81.1398 66.5154 80.9265 66.5154C80.7822 66.5154 80.6552 66.57 80.5454 66.6791C80.4356 66.7881 80.3054 66.9424 80.1549 67.1418C79.9855 67.3787 79.8209 67.5735 79.6609 67.7263C79.5009 67.879 79.2798 68.0052 78.9975 68.1049V68.1704C79.5181 68.2265 79.9275 68.3558 80.2255 68.5583C80.5234 68.761 80.7242 68.9713 80.8278 69.1895C80.9312 69.4077 81.0269 69.6913 81.1147 70.0403C81.1837 70.3457 81.2528 70.5951 81.3218 70.7883C81.3907 70.9816 81.4943 71.1436 81.6323 71.2745C81.7703 71.4054 81.9553 71.4802 82.1874 71.4989V71.8636C81.9804 71.9508 81.7327 71.9944 81.4441 71.9944C80.9987 71.9944 80.6458 71.904 80.3855 71.7233C80.1251 71.5426 79.9479 71.3415 79.8538 71.1202C79.7597 70.899 79.6813 70.6481 79.6185 70.3675C79.5056 69.7629 79.3331 69.2736 79.101 68.8997C78.8689 68.5257 78.4768 68.3542 77.9247 68.3854V71.0221C77.9247 71.3275 78.0784 71.5051 78.3858 71.555V71.8916H76.0521V71.555C76.3595 71.5114 76.5132 71.3337 76.5132 71.0221V66.2162C76.5132 65.9046 76.3595 65.7269 76.0521 65.6833V65.3467ZM86.3091 65.2439C86.8172 65.2439 87.2799 65.3389 87.6971 65.529C88.1143 65.7191 88.4641 65.9747 88.7463 66.2957C89.0286 66.6167 89.2467 66.9783 89.4004 67.3803C89.554 67.7824 89.6308 68.2015 89.6308 68.6378C89.6308 69.2861 89.4803 69.8658 89.1792 70.377C88.878 70.888 88.4688 71.2854 87.9512 71.569C87.4336 71.8526 86.8863 71.9944 86.3091 71.9944C85.732 71.9944 85.1846 71.8526 84.6671 71.569C84.1495 71.2854 83.7402 70.888 83.439 70.377C83.1379 69.8658 82.9874 69.2861 82.9874 68.6378C82.9874 68.0768 83.1207 67.533 83.3873 67.0063C83.6539 66.4796 84.0429 66.0542 84.5542 65.73C85.0654 65.4059 85.6505 65.2439 86.3091 65.2439ZM86.3091 65.7394C85.9515 65.7394 85.6442 65.8111 85.3869 65.9544C85.1298 66.0978 84.9258 66.383 84.7752 66.81C84.6247 67.2369 84.5494 67.8462 84.5494 68.6378C84.5494 69.6975 84.6906 70.4392 84.9729 70.8631C85.2552 71.287 85.7006 71.4989 86.3091 71.4989C86.7106 71.4989 87.0416 71.4117 87.3019 71.2371C87.5623 71.0625 87.7552 70.7649 87.8806 70.3442C88.0061 69.9234 88.0688 69.3546 88.0688 68.6378C88.0688 67.8462 87.9935 67.2369 87.843 66.81C87.6924 66.383 87.4885 66.0978 87.2313 65.9544C86.9741 65.8111 86.6667 65.7394 86.3091 65.7394ZM92.1528 65.3467H94.3735L96.265 70.8351C96.3465 71.0657 96.4234 71.2355 96.4955 71.3446C96.5677 71.4537 96.6884 71.5238 96.8578 71.555V71.8916H95.1075L93.4231 66.9923H93.3102C93.2036 67.5158 93.0546 68.1423 92.8632 68.8716C92.6719 69.6009 92.4947 70.1619 92.3316 70.5545C92.1183 71.0782 91.9003 71.449 91.6776 71.6672C91.4548 71.8854 91.1835 71.9944 90.8636 71.9944C90.6252 71.9944 90.4307 71.9259 90.2802 71.7887C90.1296 71.6516 90.0543 71.4926 90.0543 71.3119C90.0543 71.1623 90.1092 71.0236 90.219 70.8958C90.3288 70.7681 90.4778 70.7042 90.666 70.7042C90.7475 70.7042 90.8416 70.726 90.9482 70.7696C91.1553 70.8569 91.2839 70.9005 91.3341 70.9005C91.4909 70.9005 91.6305 70.7836 91.7528 70.5499C91.8752 70.3162 92.0461 69.8533 92.2656 69.1614C92.6985 67.7465 92.915 66.8021 92.915 66.3284C92.915 65.8672 92.6609 65.6521 92.1528 65.6833V65.3467ZM96.9519 71.555C97.2154 71.4802 97.4444 71.2402 97.6389 70.8351L99.5397 66.8426C99.615 66.6869 99.6526 66.4967 99.6526 66.2723C99.6526 66.21 99.6103 66.1586 99.5256 66.1181C99.4409 66.0775 99.3358 66.0666 99.2103 66.0853V65.7488C99.7248 65.7113 100.12 65.543 100.396 65.2439H100.735L103.2 70.3675C103.382 70.7415 103.539 71.0127 103.671 71.181C103.802 71.3493 103.94 71.474 104.085 71.555V71.8916H101.393V71.555C101.557 71.555 101.684 71.5005 101.775 71.3914C101.866 71.2823 101.911 71.1592 101.911 71.0221C101.911 70.966 101.883 70.8693 101.826 70.7322L101.535 70.1244H98.5328L98.2881 70.6761C98.2317 70.8194 98.1956 70.9426 98.18 71.0454C98.1643 71.1483 98.2003 71.248 98.2881 71.3446C98.376 71.4412 98.5453 71.5114 98.7963 71.555V71.8916H96.9519V71.555ZM100.01 67.0296L98.8151 69.5915V69.6289H101.262V69.6009L100.048 67.0296H100.01Z" fill="#00A0D7"/>
<path fill-rule="evenodd" clip-rule="evenodd" d="M9.40668 50.6054V51.0836C8.96985 51.1456 8.75144 51.3981 8.75144 51.8409V58.6697C8.75144 59.1125 8.96985 59.3649 9.40668 59.4269V59.9052H6.07723V59.4269C6.52299 59.3561 6.74583 59.1036 6.74583 58.6697V51.3094H2.78798V58.6697C2.78798 59.0948 3.00639 59.3472 3.44317 59.4269V59.9052H0.11377V59.4269C0.283103 59.4092 0.436852 59.345 0.575038 59.2343C0.713224 59.1236 0.782317 58.9353 0.782317 58.6697V51.8409C0.782317 51.5752 0.713224 51.387 0.575038 51.2762C0.436852 51.1656 0.283103 51.1013 0.11377 51.0836V50.6054H9.40668ZM9.94147 59.4269C10.3159 59.3207 10.6412 58.9796 10.9176 58.4039L13.6185 52.731C13.7255 52.5096 13.779 52.2394 13.779 51.9206C13.779 51.832 13.7188 51.759 13.5984 51.7014C13.4781 51.6438 13.3288 51.6283 13.1505 51.6549V51.1766C13.8815 51.1234 14.443 50.8844 14.8353 50.4592H15.3166L18.8198 57.7396C19.0783 58.271 19.3012 58.6563 19.4884 58.8955C19.6756 59.1347 19.8717 59.3118 20.0767 59.4269V59.9052H16.2526V59.4269C16.4843 59.4269 16.6649 59.3494 16.7941 59.1944C16.9234 59.0394 16.988 58.8645 16.988 58.6697C16.988 58.5899 16.9479 58.4526 16.8677 58.2578L16.4532 57.3943H12.1878L11.8402 58.1781C11.7599 58.3818 11.7087 58.5567 11.6864 58.7028C11.6641 58.849 11.7154 58.9907 11.8402 59.128C11.9649 59.2653 12.2056 59.3649 12.5622 59.4269V59.9052H9.94147V59.4269ZM14.2871 52.9967L12.589 56.6369V56.6901H16.0654V56.6502L14.3406 52.9967H14.2871ZM20.6116 59.9052V59.4269C21.0483 59.3738 21.2668 59.1169 21.2668 58.6563V53.4617C21.2668 52.452 21.5899 51.6992 22.2362 51.2032C22.8824 50.7072 23.6602 50.4592 24.5694 50.4592C25.3449 50.4592 26.0068 50.6031 26.555 50.891C27.1033 51.1788 27.5155 51.5575 27.7919 52.0269C28.0682 52.4963 28.2063 53.0055 28.2063 53.5547C28.2063 54.0241 28.1195 54.5069 27.9456 55.0028C27.7718 55.4988 27.4643 55.9196 27.023 56.2649C26.5818 56.6104 26.0091 56.7831 25.3049 56.7831C24.5115 56.7831 23.834 56.5882 23.2724 56.1986V58.6563C23.2724 58.8423 23.3415 59.0106 23.4797 59.1612C23.6178 59.3118 23.785 59.4003 23.9811 59.4269V59.9052H20.6116ZM23.2724 52.5184V54.777C23.2724 55.0959 23.4128 55.3638 23.6936 55.5807C23.9744 55.7978 24.302 55.9062 24.6764 55.9062C25.1934 55.9062 25.5411 55.7091 25.7193 55.315C25.8976 54.9209 25.9867 54.3297 25.9867 53.5415C25.9867 52.7089 25.9087 52.1044 25.7528 51.7279C25.5968 51.3515 25.2424 51.1633 24.6898 51.1633C24.3065 51.1633 23.9744 51.2762 23.6936 51.5021C23.4128 51.7279 23.2724 52.0667 23.2724 52.5184ZM33.2339 50.6054V51.0703C33.0824 51.0703 32.9464 51.0991 32.8261 51.1567C32.7057 51.2142 32.6299 51.3161 32.5988 51.4622C32.5676 51.6084 32.6277 51.8099 32.7793 52.0667L34.7983 55.3749H34.8919L36.2156 52.266C36.3226 52.0269 36.3761 51.832 36.3761 51.6814C36.3761 51.3626 36.073 51.1633 35.4668 51.0836V50.6054H37.9539V51.0836C37.6864 51.181 37.4992 51.305 37.3923 51.4556C37.2853 51.6062 37.1739 51.8231 37.058 52.1066L34.7181 57.5935C34.0139 59.232 33.02 60.0514 31.7364 60.0514C31.0589 60.0514 30.5909 59.9052 30.3324 59.6129C30.0738 59.3207 29.9446 59.0416 29.9446 58.7759C29.9446 58.4836 30.0315 58.2268 30.2054 58.0053C30.3792 57.7839 30.6354 57.6732 30.9742 57.6732C31.5715 57.6732 31.9191 57.961 32.0171 58.5368C32.0795 58.8645 32.2533 59.0283 32.5386 59.0283C32.699 59.0283 32.9085 58.9442 33.167 58.7759C33.4255 58.6076 33.6573 58.2445 33.8624 57.6865L30.2789 51.8011C30.0471 51.4202 29.7351 51.181 29.3429 51.0836V50.6054H33.2339ZM46.5114 57.9389L46.9258 58.457C45.6601 59.5199 44.43 60.0514 43.2354 60.0514C41.9251 60.0514 40.8175 59.6018 39.9127 58.7028C39.0079 57.8039 38.5556 56.6369 38.5556 55.2021C38.5556 54.219 38.765 53.3687 39.184 52.6513C39.6029 51.9339 40.1534 51.3892 40.8354 51.0172C41.5173 50.6452 42.2371 50.4592 42.9948 50.4592C43.6009 50.4592 44.158 50.5433 44.6662 50.7116C44.9336 50.7913 45.1654 50.8312 45.3614 50.8312C45.4417 50.8312 45.5442 50.7869 45.669 50.6984C45.6957 50.6806 45.7314 50.6496 45.776 50.6054H46.2573V52.7974H45.776C45.5977 52.3015 45.2612 51.9051 44.7664 51.6084C44.2717 51.3117 43.7525 51.1633 43.2087 51.1633C42.2192 51.1633 41.5663 51.5508 41.2498 52.3258C40.9334 53.1008 40.7752 54.1127 40.7752 55.3615C40.7752 56.0524 40.842 56.6636 40.9757 57.1949C41.1094 57.7263 41.388 58.1759 41.8114 58.5434C42.2349 58.911 42.8477 59.0948 43.65 59.0948C44.577 59.0948 45.5308 58.7095 46.5114 57.9389Z" fill="#002F53"/>
</svg>
